<svg width="13" height="17" viewBox="0 0 13 17" fill="none" xmlns="http://www.w3.org/2000/svg">
<path d="M3.987 1.0661C4.42458 0.934167 4.89415 0.956085 5.31754 1.12821C5.74093 1.30033 6.0926 1.61227 6.314 2.0121L6.389 2.1611L7.05 3.6321C7.25091 4.07858 7.31613 4.57428 7.23754 5.05754C7.15895 5.54079 6.94003 5.99028 6.608 6.3501L6.476 6.4821L5.432 7.4551C5.244 7.6331 5.385 8.3221 6.066 9.5001C6.677 10.5601 7.176 11.0551 7.42 11.0821H7.463L7.516 11.0721L9.566 10.4451C9.84151 10.3606 10.1355 10.3573 10.4129 10.4355C10.6903 10.5137 10.9392 10.6701 11.13 10.8861L11.222 11.0011L12.578 12.8811C12.8441 13.2495 12.9768 13.6975 12.9542 14.1514C12.9317 14.6052 12.7553 15.0379 12.454 15.3781L12.332 15.5041L11.789 16.0181C11.3023 16.479 10.6935 16.7905 10.0349 16.9155C9.37633 17.0404 8.69573 16.9737 8.074 16.7231C6.139 15.9431 4.381 14.1611 2.784 11.3951C1.184 8.6221 0.519001 6.2051 0.816001 4.1351C0.905962 3.50925 1.16378 2.91946 1.56206 2.42839C1.96034 1.93732 2.4842 1.56331 3.078 1.3461L3.271 1.2821L3.987 1.0661Z" fill="#377DFF"/>
</svg>
